<svg version="1.1" viewBox="0 0 100 100" xmlns="http://www.w3.org/2000/svg">
	<path d="m65.473 70.937c2.226-0.338 4.427-0.749 6.597-1.236 2.613-4.914 4.133-10.48 4.133-16.434v-32.317c0-5.027-3.698-9.205-8.542-9.893h-35.323c-4.843 0.688-8.542 4.866-8.542 9.893v32.318c0 5.912 1.496 11.486 4.075 16.375 2.197 0.494 4.426 0.916 6.681 1.263l-14.723 18.313h8.268l9.894-12.254h24.017l9.894 12.254h8.268l-14.697-18.282zm-25.971-55.212c0-0.552 0.448-1 1-1h18.997c0.552 0 1 0.448 1 1v2.75c0 0.552-0.448 1-1 1h-18.998c-0.552 0-1-0.448-1-1v-2.75zm-10.438 26.407v-15.982c0-1.38 1.119-2.5 2.5-2.5h36.873c1.38 0 2.5 1.119 2.5 2.5v15.982c0 1.381-1.119 2.5-2.5 2.5h-36.874c-1.38 0-2.499-1.119-2.499-2.5zm6.146 19.844c-2.071 0-3.749-1.679-3.749-3.749 0-2.071 1.679-3.75 3.749-3.75s3.749 1.679 3.749 3.75c1e-3 2.07-1.678 3.749-3.749 3.749zm25.83-3.749c0-2.071 1.679-3.75 3.749-3.75 2.071 0 3.75 1.679 3.75 3.75s-1.679 3.749-3.75 3.749c-2.07 0-3.749-1.679-3.749-3.749z"/>
</svg>
