<svg version="1.1" viewBox="0 0 30 30" xmlns="http://www.w3.org/2000/svg">
	<circle cx="15" cy="15" r="14" style="fill:#fff"/>
	<path d="m15 2c7.168 0 13 5.832 13 13s-5.832 13-13 13-13-5.832-13-13 5.832-13 13-13m0-2c-8.284 0-15 6.716-15 15s6.716 15 15 15 15-6.716 15-15-6.716-15-15-15z" style="fill:#000"/>
	<path d="m12.731,18.734c-.025.212-.037.485-.037.821s.037.729.112,1.177c-2.34.809-4.257,1.512-5.751,2.109l-.84-2.39c2.054-.398,4.226-.971,6.517-1.718Zm.616-8.16c.772-1.107,1.413-2.583,1.923-4.425,1.232.323,1.967.529,2.204.616.236.087.354.189.354.308,0,.119-.078.233-.233.346s-.314.299-.476.561h5.172c-.647,2.266-1.625,4.076-2.932,5.434,1.245.722,2.72,1.245,4.425,1.568-.735.884-1.245,1.624-1.531,2.222-2.004-.71-3.566-1.462-4.687-2.259-1.208.847-2.652,1.6-4.332,2.259-.187-.312-.398-.61-.635-.896-.05.349-.094.909-.131,1.681-2.216.324-3.977.647-5.284.971-.212-.672-.399-1.419-.561-2.24.486-.199.878-.457,1.177-.775.298-.316.759-.955,1.381-1.913-.709.087-1.469.249-2.278.485-.224-.66-.429-1.388-.616-2.185.398-.199.694-.439.887-.719.193-.28.491-.918.896-1.914.404-.996.762-2.116,1.074-3.361,1.407.411,2.194.65,2.362.719.168.068.252.165.252.29,0,.124-.075.261-.224.41s-.262.283-.336.401c-.074.119-.354.67-.84,1.652-.486.984-.884,1.774-1.195,2.372.249-.013.666-.044,1.251-.094.386-.685.791-1.456,1.214-2.315l1.718.803Zm1.475,1.4c-.261.361-.628.791-1.102,1.289-.274-.249-.598-.492-.971-.729-.175.236-.28.386-.318.448-.871,1.332-1.73,2.471-2.577,3.417.61-.087,1.432-.236,2.465-.448-.224-.262-.455-.51-.691-.747,1.854-.535,3.286-1.107,4.294-1.718-.349-.398-.716-.902-1.102-1.513Zm6.909,9.673l-1.195,2.203c-2.017-.847-4.432-1.649-7.245-2.409l1.083-2.091c2.689.759,5.141,1.524,7.357,2.297Zm-1.008-3.361l-1.213,1.886c-1.208-.747-2.714-1.456-4.519-2.129l1.177-1.829c1.605.635,3.124,1.325,4.556,2.072Zm-4.575-8.421c-.075.149-.137.262-.187.336.46.734,1.008,1.382,1.643,1.942.598-.61,1.126-1.37,1.587-2.278h-3.044Z" style="fill:#000"/>
</svg>
