<?xml version="1.0" encoding="UTF-8"?><svg id="a" xmlns="http://www.w3.org/2000/svg" width="30" height="30" viewBox="0 0 30 30"><defs><style>.b,.c{stroke-width:0px;}.c{fill:#fff;}</style></defs><circle class="c" cx="15" cy="15" r="14"/><path class="b" d="m15,2c7.168,0,13,5.832,13,13s-5.832,13-13,13S2,22.168,2,15,7.832,2,15,2M15,0C6.716,0,0,6.716,0,15s6.716,15,15,15,15-6.716,15-15S23.284,0,15,0Z"/><path class="b" d="m14.137,24.262c.25.225.537.338.863.338h0c.325,0,.612-.113.863-.338l4.8-4.8h0c.225-.25.337-.538.337-.862s-.113-.613-.337-.863c-.25-.225-.538-.337-.863-.337s-.613.113-.862.337l-2.737,2.775h0V6.6h0c0-.35-.113-.638-.338-.862s-.513-.338-.863-.338-.637.113-.863.338-.337.512-.337.862v13.913h0l-2.738-2.775h0c-.25-.225-.538-.337-.863-.337s-.612.113-.862.337c-.225.25-.337.538-.337.863s.113.613.337.862l4.8,4.8h0Z"/></svg>