<svg version="1.1" viewBox="0 0 30 30" xmlns="http://www.w3.org/2000/svg">
	<circle class="c" cx="15" cy="15" r="14" style="fill:#fff"/>
	<path class="b" d="m15 2c7.168 0 13 5.832 13 13s-5.832 13-13 13-13-5.832-13-13 5.832-13 13-13m0-2c-8.284 0-15 6.716-15 15s6.716 15 15 15 15-6.716 15-15-6.716-15-15-15z" style="fill:#000"/>
	<path class="b" d="m9.594,17.792c.324.66.697,1.195,1.121,1.605v-4.967h-4.108v-1.923h3.51v-1.849h-2.838v-1.979h2.838v-2.428h1.923c.299,0,.448.05.448.149s-.025.205-.075.317c-.125.374-.187,1.027-.187,1.961h2.652v1.979h-2.652v1.849h3.062v1.923h-2.558v1.904h2.427v1.887h-2.427v2.408c.859.286,1.904.43,3.137.43,3.921,0,6.629-.1,8.123-.299-.386.934-.623,1.743-.709,2.428l-5.154.019c-1.743,0-2.978-.034-3.706-.103-.729-.068-1.441-.215-2.138-.439-.697-.224-1.307-.525-1.83-.905-.522-.38-.965-.837-1.326-1.372-.336,1.257-.741,2.377-1.213,3.36-.635-.386-1.27-.709-1.905-.971,1.058-1.979,1.637-4.469,1.736-7.469l1.494.111c.436.038.685.072.747.104.062.03.094.087.094.168s-.031.196-.094.345c-.149.337-.28.922-.392,1.756Zm8.179-3.697v3.062c0,.262.04.43.121.504.081.075.252.112.514.112h1.755c.211,0,.37-.044.476-.131.105-.087.184-.268.233-.542.05-.273.081-.697.093-1.27.784.387,1.568.616,2.353.691-.112.946-.255,1.658-.43,2.138s-.405.81-.691.989c-.287.181-.691.271-1.214.271h-3.342c-.747,0-1.27-.165-1.568-.495s-.448-.887-.448-1.671v-5.584h4.332v-2.576h-4.761v-1.961h6.983v6.461h-4.407Z" style="fill:#000"/>
</svg>
