<svg style="enable-background:new 0 0 30 30" version="1.1" viewBox="0 0 30 30" xmlns="http://www.w3.org/2000/svg">
	<circle class="st1" cx="15" cy="15" r="14" style="fill:#fff"/>
	<path d="m15 2c7.168 0 13 5.832 13 13s-5.832 13-13 13-13-5.832-13-13 5.832-13 13-13m0-2c-8.284 0-15 6.716-15 15s6.716 15 15 15 15-6.716 15-15-6.716-15-15-15z" style="fill:#000"/>
	<path d="m20.662 13.012c-0.3-0.85-0.775-1.6-1.425-2.25-1.225-1.175-2.638-1.762-4.238-1.762s-3.012 0.588-4.237 1.763l-0.637 0.637h1.275c0.325 0 0.6 0.112 0.825 0.337s0.35 0.512 0.375 0.863c-0.025 0.35-0.15 0.637-0.375 0.863-0.225 0.225-0.5 0.337-0.825 0.337h-4.2c-0.35 0-0.637-0.113-0.863-0.337-0.225-0.225-0.338-0.513-0.338-0.863v-4.2c0-0.35 0.112-0.638 0.337-0.863s0.512-0.338 0.862-0.338 0.638 0.112 0.863 0.337 0.337 0.512 0.337 0.863v1.312l0.637-0.638c1.125-1.1 2.4-1.838 3.825-2.213 1.425-0.35 2.85-0.35 4.275 0 1.4 0.375 2.663 1.112 3.788 2.212 0.925 0.925 1.588 1.962 1.988 3.112 0.1 0.325 0.087 0.638-0.038 0.938-0.15 0.275-0.375 0.475-0.675 0.6-0.325 0.1-0.638 0.088-0.938-0.037-0.273-0.148-0.473-0.373-0.598-0.673zm2.475 3.225c0.175 0.05 0.338 0.15 0.488 0.3 0.15 0.175 0.263 0.35 0.337 0.525v0.15c0.025 0.075 0.038 0.138 0.038 0.188v4.2c-0.025 0.35-0.15 0.637-0.375 0.862s-0.5 0.338-0.825 0.338c-0.35 0-0.637-0.113-0.862-0.337-0.225-0.225-0.337-0.513-0.337-0.863v-1.312l-0.675 0.638c-1.125 1.1-2.387 1.838-3.787 2.213-1.425 0.35-2.85 0.35-4.275 0-1.425-0.375-2.7-1.112-3.825-2.212-0.9-0.925-1.55-1.962-1.95-3.112-0.127-0.327-0.115-0.64 0.035-0.94 0.125-0.275 0.35-0.475 0.675-0.6 0.325-0.1 0.625-0.087 0.9 0.038 0.3 0.15 0.512 0.375 0.637 0.675 0.275 0.825 0.75 1.575 1.425 2.25 1.225 1.175 2.638 1.762 4.238 1.762s3.012-0.588 4.238-1.763l0.637-0.637h-1.275c-0.35 0-0.638-0.113-0.862-0.337-0.225-0.225-0.338-0.513-0.338-0.863s0.113-0.637 0.337-0.862c0.225-0.225 0.513-0.337 0.863-0.337h4.35c0.05 0.024 0.113 0.036 0.188 0.036z" style="fill:#000"/>
</svg>
