<svg style="enable-background:new 0 0 100 100" version="1.1" viewBox="0 0 100 100" xmlns="http://www.w3.org/2000/svg">
	<style type="text/css">.st0{fill:#993333;}
	.st1{fill:#FFFFFF;}</style>
	<path class="st1" d="M87.5,36.7c-7.555,2.06-14.063,5.305-19.525,9.526l-3.908-4.759H53.65l8.346,10.162   C57.124,56.77,53.182,62.929,50,70h10.417c1.617-4.974,3.649-9.231,6.004-12.983L77.083,70H87.5L71.362,50.35   C76.031,44.975,81.603,40.708,87.5,36.7z M20.833,43.75V30H12.5v40h8.333V55.833c4.085-3.502,9.108-6.338,14.583-8.655V70h8.333   V44.127C59.981,39.01,78.014,37.504,87.5,36.7C74.617,35.433,44.167,35,20.833,43.75z" style="fill:#933"/>
</svg>
