<svg style="enable-background:new 0 0 100 100" version="1.1" viewBox="0 0 100 100" xmlns="http://www.w3.org/2000/svg">
	<style type="text/css">.st0{fill:#993333;}
	.st1{fill:#FFFFFF;}</style>
	<path class="st0" d="M91.667,100H8.333C3.731,100,0,96.269,0,91.667V8.333C0,3.731,3.731,0,8.333,0h83.333   C96.269,0,100,3.731,100,8.333v83.333C100,96.269,96.269,100,91.667,100z"/>
	<path class="st1" d="m78.125 13.358c-5.666 1.545-10.548 3.979-14.644 7.144l-2.931-3.569h-7.812l6.259 7.622c-3.654 3.856-6.611 8.475-8.997 13.778h7.812c1.212-3.731 2.737-6.924 4.503-9.737l7.997 9.737h7.812l-12.102-14.737c3.501-4.031 7.68-7.232 12.103-10.238zm-50 5.288v-10.313h-6.25v30h6.25v-10.625c3.064-2.626 6.831-4.753 10.938-6.491v17.116h6.25v-19.404c12.173-3.838 25.698-4.967 32.812-5.57-9.662-0.951-32.5-1.276-50 5.287z"/>
	<path class="st1" d="m47.251 70.273c0 5.762-1.192 10.169-3.577 13.221s-5.875 4.578-10.473 4.578c-4.541 0-8.012-1.497-10.416-4.492s-3.634-7.287-3.691-12.877v-7.669c0-5.818 1.207-10.234 3.62-13.249 2.413-3.014 5.89-4.521 10.43-4.521s8.012 1.493 10.416 4.478c2.404 2.986 3.634 7.273 3.691 12.863v7.668zm-8.27-8.43c0-3.456-0.472-5.973-1.416-7.548s-2.418-2.363-4.421-2.363c-1.946 0-3.381 0.75-4.306 2.249-0.926 1.499-1.417 3.843-1.474 7.031v10.14c0 3.398 0.462 5.925 1.388 7.576 0.925 1.651 2.408 2.478 4.45 2.478 2.021 0 3.481-0.793 4.378-2.378 0.896-1.584 1.364-4.009 1.402-7.274v-9.911z"/>
	<path class="st1" d="M72.919,87.5h-8.271V55.623l-9.872,3.062v-6.724l17.255-6.181h0.888V87.5z"/>
</svg>
