<svg style="enable-background:new 0 0 100 100" version="1.1" viewBox="0 0 100 100" xmlns="http://www.w3.org/2000/svg">
	<style type="text/css">.st0{fill:#993333;}
	.st1{fill:#FFFFFF;}</style>
	<path class="st0" d="M91.667,100H8.333C3.731,100,0,96.269,0,91.667V8.333C0,3.731,3.731,0,8.333,0h83.333   C96.269,0,100,3.731,100,8.333v83.333C100,96.269,96.269,100,91.667,100z"/>
	<path class="st1" d="m78.125 13.358c-5.666 1.545-10.548 3.979-14.644 7.144l-2.931-3.569h-7.812l6.259 7.622c-3.654 3.856-6.611 8.475-8.997 13.778h7.812c1.212-3.731 2.737-6.924 4.503-9.737l7.997 9.737h7.812l-12.102-14.737c3.501-4.031 7.68-7.232 12.103-10.238zm-50 5.288v-10.313h-6.25v30h6.25v-10.625c3.064-2.626 6.831-4.753 10.938-6.491v17.116h6.25v-19.404c12.173-3.838 25.698-4.967 32.812-5.57-9.662-0.951-32.5-1.276-50 5.287z"/>
	<path class="st1" d="m47.251 70.273c0 5.762-1.192 10.169-3.577 13.221s-5.875 4.578-10.473 4.578c-4.541 0-8.012-1.497-10.416-4.492s-3.634-7.287-3.691-12.877v-7.669c0-5.818 1.207-10.234 3.62-13.249 2.413-3.014 5.89-4.521 10.43-4.521s8.012 1.493 10.416 4.478c2.404 2.986 3.634 7.273 3.691 12.863v7.668zm-8.27-8.43c0-3.456-0.472-5.973-1.416-7.548s-2.418-2.363-4.421-2.363c-1.946 0-3.381 0.75-4.306 2.249-0.926 1.499-1.417 3.843-1.474 7.031v10.14c0 3.398 0.462 5.925 1.388 7.576 0.925 1.651 2.408 2.478 4.45 2.478 2.021 0 3.481-0.793 4.378-2.378 0.896-1.584 1.364-4.009 1.402-7.274v-9.911z"/>
	<path class="st1" d="m61.243 63.006h4.407c2.099 0 3.652-0.524 4.664-1.574 1.011-1.049 1.517-2.441 1.517-4.178 0-1.678-0.501-2.985-1.502-3.92-1.002-0.935-2.38-1.402-4.135-1.402-1.584 0-2.909 0.435-3.978 1.302-1.068 0.869-1.603 1.999-1.603 3.392h-8.27c0-2.175 0.586-4.125 1.76-5.852 1.173-1.726 2.813-3.076 4.922-4.049 2.107-0.973 4.43-1.459 6.968-1.459 4.406 0 7.858 1.054 10.358 3.162 2.499 2.108 3.748 5.013 3.748 8.713 0 1.908-0.582 3.663-1.745 5.266-1.164 1.602-2.69 2.832-4.578 3.69 2.346 0.84 4.096 2.1 5.25 3.777 1.154 1.679 1.731 3.663 1.731 5.952 0 3.701-1.35 6.667-4.049 8.899-2.699 2.231-6.271 3.348-10.716 3.348-4.159 0-7.56-1.097-10.201-3.291-2.643-2.193-3.963-5.093-3.963-8.698h8.269c0 1.564 0.587 2.843 1.76 3.834 1.174 0.992 2.619 1.488 4.336 1.488 1.964 0 3.505-0.52 4.621-1.56s1.674-2.418 1.674-4.135c0-4.159-2.289-6.238-6.867-6.238h-4.379v-6.467z"/>
</svg>
